<svg xmlns="http://www.w3.org/2000/svg" width="17.49" height="17.491" viewBox="0 0 17.49 17.491">
  <defs>
    <style>
      .cls-1 {
        fill: #262424;
        fill-rule: evenodd;
      }
    </style>
  </defs>
  <path id="패스_2005" data-name="패스 2005" class="cls-1" d="M920.5-1404h-.794l-.276-.274A6.469,6.469,0,0,0,921-1408.5a6.5,6.5,0,0,0-6.5-6.5,6.5,6.5,0,0,0-6.5,6.5,6.5,6.5,0,0,0,6.5,6.5,6.47,6.47,0,0,0,4.225-1.566l.276.274v.792l5,4.991L925.49-1399l-4.988-5Zm-6,0a4.5,4.5,0,0,1-4.5-4.5,4.5,4.5,0,0,1,4.5-4.5,4.5,4.5,0,0,1,4.5,4.5,4.5,4.5,0,0,1-4.5,4.5Z" transform="translate(-908 1415)"/>
</svg>
