<svg id="여행지검색아이콘" xmlns="http://www.w3.org/2000/svg" width="63" height="62" viewBox="0 0 63 62">
  <defs>
    <style>
      .cls-1 {
        fill: #589ceb;
        opacity: 0.569;
      }

      .cls-2 {
        fill: #fff;
        fill-rule: evenodd;
      }
    </style>
  </defs>
  <ellipse id="타원_13" data-name="타원 13" class="cls-1" cx="31.5" cy="31" rx="31.5" ry="31"/>
  <path id="패스_2012" data-name="패스 2012" class="cls-2" d="M923.66-1401.222h-.995l-.346-.343a8.1,8.1,0,0,0,1.964-5.293,8.141,8.141,0,0,0-8.142-8.141,8.141,8.141,0,0,0-8.142,8.141,8.141,8.141,0,0,0,8.142,8.141,8.105,8.105,0,0,0,5.292-1.962l.346.343v.992l6.26,6.251,1.867-1.867-6.248-6.263Zm-7.518,0a5.635,5.635,0,0,1-5.636-5.636,5.636,5.636,0,0,1,5.636-5.636,5.637,5.637,0,0,1,5.637,5.636,5.636,5.636,0,0,1-5.637,5.636Z" transform="translate(-887.32 1435.248)"/>
</svg>
